<svg width="21" height="20" viewBox="0 0 21 20" fill="none" xmlns="http://www.w3.org/2000/svg">
<path d="M9.1 11.8L6.95 9.65C6.76667 9.46667 6.53333 9.375 6.25 9.375C5.96667 9.375 5.73334 9.46667 5.55 9.65C5.36667 9.83333 5.275 10.0667 5.275 10.35C5.275 10.6333 5.36667 10.8667 5.55 11.05L8.4 13.9C8.6 14.1 8.83333 14.2 9.1 14.2C9.36667 14.2 9.6 14.1 9.8 13.9L15.45 8.25C15.6333 8.06667 15.725 7.83333 15.725 7.55C15.725 7.26667 15.6333 7.03333 15.45 6.85C15.2667 6.66667 15.0333 6.575 14.75 6.575C14.4667 6.575 14.2333 6.66667 14.05 6.85L9.1 11.8ZM10.5 20C9.11667 20 7.81667 19.7373 6.6 19.212C5.38334 18.6867 4.325 17.9743 3.425 17.075C2.525 16.1757 1.81267 15.1173 1.288 13.9C0.763335 12.6827 0.500668 11.3827 0.500001 10C0.499335 8.61733 0.762001 7.31733 1.288 6.1C1.814 4.88267 2.52633 3.82433 3.425 2.925C4.32367 2.02567 5.382 1.31333 6.6 0.788C7.818 0.262667 9.118 0 10.5 0C11.882 0 13.182 0.262667 14.4 0.788C15.618 1.31333 16.6763 2.02567 17.575 2.925C18.4737 3.82433 19.1863 4.88267 19.713 6.1C20.2397 7.31733 20.502 8.61733 20.5 10C20.498 11.3827 20.2353 12.6827 19.712 13.9C19.1887 15.1173 18.4763 16.1757 17.575 17.075C16.6737 17.9743 15.6153 18.687 14.4 19.213C13.1847 19.739 11.8847 20.0013 10.5 20Z" fill="url(#paint0_linear_1731_1010)"/>
<defs>
<linearGradient id="paint0_linear_1731_1010" x1="10.5" y1="0" x2="10.5" y2="20" gradientUnits="userSpaceOnUse">
<stop stop-color="#0160E7"/>
<stop offset="1" stop-color="#013681"/>
</linearGradient>
</defs>
</svg>
